#!OML:ASF F:\VICON\USERDATA\INSTALL\rory3\rory3.ASF
:FULLY-SPECIFIED
:DEGREES
66
root -0.9751855552830635 17.2860154414162 26.41193720708677 1.217604349377515 5.979468346428235 0.741507805471566
lfemur -29.340883235798863 1.5217816004544216 -25.014187581480332
ltibia 44.138199405756154
lfoot -5.668473816265011 -16.108449910638043
ltoes -0.9095660687357583
rfemur -5.139397453624433 -2.4547395651153634 22.021081281208716
rtibia 105.05461603453526
rfoot 18.120682431598627 -13.487750467516122
rtoes 18.72243866559781
lowerback 1.0 1.6965813143932813 0.10016386819345702
upperback 0.24272810162650016 2.3746953696781343 -0.4111602298937832
thorax -8.84496394890414 1.1378131986511344 -0.6240492510493283
lowerneck -19.14683590204764 -5.780811265003715 -1.642473603218357
upperneck 13.32990364038482 -8.401456399280454 4.05170570885066
head 7.529517882219323 -3.6264328968897206 0.6694959362193881
lclavicle 2.57814931579983e-16 3.900502479724587e-15
lhumerus -51.01737840093884 -8.874493244527228 93.31660665827114
lradius 102.68306952329593
lwrist 35.98325687077099
lhand -29.839180222445194 0.04823353380746198
lfingers 7.12502
lthumb -2.471817999181082 31.086416718576448
rclavicle -3.3122056716705355e-16 3.3549561657912278e-15
rhumerus -38.46306458387687 16.629551567819536 -95.54700657295265
rradius 114.5830856198332
rwrist -19.146988439953557
rhand -18.293821890637286 1.0
rfingers 7.12502
rthumb 7.211133726808616 11.779781000532905
67
root -0.973473753971578 17.118299469705267 26.576718006949232 1.3257062893131755 6.301228034956399 1.784419441894156
lfemur -27.327375182951478 1.0739500375936828 -26.17235485231594
ltibia 48.294857073348574
lfoot -11.280187148763126 -11.261664182683749
ltoes 1.070422808250262
rfemur -11.049010608064535 -4.885967409462556 19.344762210525026
rtibia 112.10531186341296
rfoot 17.59711681708449 -12.099517787428915
rtoes 20.399599694061415
lowerback 1.0 1.4976168437050057 -0.8777631266998062
upperback 0.31596007576006 1.9040712354799862 -0.7654615483662656
thorax -8.974006138712916 0.9600501783649773 -0.2060415798039372
lowerneck -19.489271197695242 -5.6675582759751535 -1.6087091800135513
upperneck 13.176946239166755 -8.2907574214773 4.203308149567469
head 7.51423828995521 -3.553721302732443 0.7159239742177663
lclavicle 1.584624564524832e-17 2.793608840386318e-15
lhumerus -49.53693308672849 -9.429117524605147 93.03544929503899
lradius 103.21207484010829
lwrist 36.00466925833165
lhand -30.019659100465507 0.29955304241321645
lfingers 7.12502
lthumb -2.616087987917626 31.008520014556737
rclavicle -6.876249977550832e-16 2.3583470373350428e-15
rhumerus -39.66774877683958 15.873867164499615 -95.93248438044883
rradius 113.34492173740543
rwrist -19.175352410828943
rhand -18.2663835549312 1.0
rfingers 7.12502
rthumb 7.262226667666947 11.419171039848775
68
root -0.9888299623783063 16.990014528845684 26.621805709909157 1.6007216777456073 6.1062478662835025 2.502001565628422
lfemur -24.970409759316688 0.6553840576168313 -27.018657509528637
ltibia 50.554559009028814
lfoot -15.540825919258562 -6.092521489855853
ltoes -1.2995815894500033
rfemur -17.65258795354799 -6.419883050421995 17.578274207409933
rtibia 117.44010497819878
rfoot 17.806414098332013 -9.908402269277525
rtoes 19.443841565297085
lowerback 1.0 1.3490237636626712 -1.683952021646269
upperback 0.3301432170366595 1.5455756610419076 -1.0021316638504763
thorax -9.052038039393986 0.8241721340253754 0.12518149294352884
lowerneck -19.905399982971776 -5.508183751317914 -1.5803133414451596
upperneck 13.03330774583473 -8.084826662196907 4.30181061110787
head 7.502078672152257 -3.4479650223427893 0.7520093200893448
lclavicle 1.502059632031748e-16 2.2386043961694695e-15
lhumerus -48.10778405565645 -9.782130651384126 92.75316114440282
lradius 103.91321455572364
lwrist 35.99404395565481
lhand -30.006563189611995 0.9511904495975392
lfingers 7.12502
lthumb -2.586766044243411 31.565884711038404
rclavicle -4.0957297321245117e-16 1.948412670339409e-15
rhumerus -40.98577637286739 14.995609337398609 -96.27742038533029
rradius 112.27058300291793
rwrist -19.29211117912688
rhand -18.220716578885686 1.0
rfingers 7.12502
rthumb 7.330603159780389 11.202235607772607
69
root -0.9605979728456423 16.942655706683816 28.00164075824015 1.9597073699727385 5.855303066466254 3.10359044016223
lfemur -22.065490945410087 0.16967933724945494 -27.75917682288344
ltibia 50.89012706404866
lfoot -18.700499688792355 -2.519401275348379
ltoes -4.547580643889194
rfemur -24.344858874321638 -7.46832728144311 16.547391691204368
rtibia 120.60456762917786
rfoot 18.02019128415968 -7.562208029321653
rtoes 16.529662621344496
lowerback 1.0 1.1527717585684338 -2.2949786345170216
upperback 0.32593820934250484 1.1700084507750186 -1.121852376693595
thorax -9.13236829433555 0.6756338823259735 0.4503887416025574
lowerneck -20.298682294760354 -5.31473253337668 -1.5709014731379258
upperneck 12.893686115251292 -7.810519905824126 4.351558084550046
head 7.486050228023728 -3.3170549564529486 0.7793153439221924
lclavicle 3.000142903276389e-16 2.3229796659240446e-15
lhumerus -46.66869519797231 -9.926532188048554 92.4954477112904
lradius 104.86625477858067
lwrist 35.89447992690804
lhand -30.007012606704286 1.2778529647793442
lfingers 7.12502
lthumb -2.7844025019471483 31.491950495730958
rclavicle -4.3113114354931157e-16 2.0296897787896062e-15
rhumerus -42.460978270606404 14.056050948873082 -96.56167222591172
rradius 111.52917150079467
rwrist -19.4539487623484
rhand -18.191668822000256 1.0
rfingers 7.12502
rthumb 7.3467357851564286 11.032222735393477
70
root -0.8999796381582127 16.9751877349749 29.882945442950735 2.401808786441743 5.7694700243122226 3.719481945565067
lfemur -18.5474928036286 -0.48085100366424927 -28.470609986600714
ltibia 49.894877265789475
lfoot -21.203809912990376 -0.9640278359564736
ltoes -4.719623433096042
rfemur -30.86838004516625 -8.217450009282768 16.048669375109874
rtibia 121.41282738374784
rfoot 17.649764103852775 -5.609691435245953
rtoes 11.571205499464797
lowerback 1.0 0.7821122458942449 -2.7918955586167953
upperback 0.26303414787887147 0.5947557139634558 -1.0994129820830123
thorax -9.176556630670843 0.4189307130146176 0.7932734022965626
lowerneck -20.66394755380032 -5.068226450194516 -1.5720573261555908
upperneck 12.819229811160923 -7.434540972540181 4.362691270130068
head 7.494855111274655 -3.141430381754845 0.8045172206729959
lclavicle 4.735004170257706e-16 2.760946250545461e-15
lhumerus -45.37012333490396 -9.949494777292959 92.27623794054183
lradius 106.2282907557943
lwrist 35.88381367190171
lhand -29.980572374726016 2.0442066942863852
lfingers 7.12502
lthumb -2.8283728307187403 32.19924783514074
rclavicle -6.123381894449906e-16 2.453406442596337e-15
rhumerus -44.02982611992932 13.1929726973813 -96.77060635010268
rradius 111.23676176971559
rwrist -19.638979493034658
rhand -18.160691462929588 1.0
rfingers 7.12502
rthumb 7.4199824177289635 11.036579504765836
71
root -0.8389878193552941 17.071875726833074 31.661395559876095 2.803234238777654 5.733842064253338 3.973572061330427
lfemur -14.844131769319366 -1.0791085396532605 -28.81487052487049
ltibia 48.33019369672455
lfoot -22.531394789537458 -0.23921049092117563
ltoes -4.785921993685331
rfemur -36.44883898161779 -8.444356372689597 16.397551021795366
rtibia 119.78332616638413
rfoot 16.43961935590385 -4.307927652652682
rtoes 6.384698649647078
lowerback 1.0 0.33140757556064615 -2.988681160010641
upperback 0.15150847491430897 -0.052084689645335525 -0.9353998529742508
thorax -9.15936596667318 0.11364961563497522 1.1489974461003243
lowerneck -20.91309493188364 -4.80626591828149 -1.58510702059294
upperneck 12.816854185576771 -7.021099580320926 4.315924214150368
head 7.52017939463281 -2.950199192666109 0.8161445261039489
lclavicle 1.4153374056535386e-15 3.911810390376679e-15
lhumerus -44.44850735500314 -9.93336321270217 92.0728905686059
lradius 107.97297840653756
lwrist 35.915947628169256
lhand -30.068881358215286 2.30202226875403
lfingers 7.12502
lthumb -3.0848286650045424 32.45848344557177
rclavicle 2.2033335091218214e-16 3.734605727455193e-15
rhumerus -45.534056899414296 12.492541318333492 -96.90124369210768
rradius 111.39153128996976
rwrist -19.86522453922423
rhand -18.137281533670627 1.0
rfingers 7.12502
rthumb 7.465091129292466 11.076978032557012
72
root -0.7756366390596374 17.193448953847803 31.45160222173765 2.954997933578288 5.526968934160313 3.917087765319856
lfemur -11.046018084018492 -1.3516170208763572 -28.833311349091105
ltibia 46.41662892594789
lfoot -21.716532397868328 0.4675110277261876
ltoes -8.977427114067867
rfemur -40.58713287293763 -8.048266531069466 17.278201775295162
rtibia 115.99991444918423
rfoot 14.389625461137083 -3.695739400874933
rtoes 4.453224967104369
lowerback 1.0 -0.1264159843116207 -2.9962202967773144
upperback -0.0048888755984299315 -0.6737692712297823 -0.6372877059957299
thorax -9.086904810099217 -0.17996990368580268 1.536872600643648
lowerneck -21.054572091251543 -4.538829931501698 -1.5957929193932145
upperneck 12.93421203910979 -6.585259885741932 4.224135718523319
head 7.571456945699319 -2.751637978492065 0.8190990444156961
lclavicle 2.631301515001419e-15 4.2757323747351014e-15
lhumerus -43.85815974679648 -9.934214515681818 91.91406380704098
lradius 109.78686122760395
lwrist 35.88392173547892
lhand -29.99914754388989 3.0621381846003914
lfingers 7.12502
lthumb -3.049882500878973 32.38594243259515
rclavicle 2.381586200891454e-15 4.5497103527562534e-15
rhumerus -46.94989679516439 11.912602044930487 -96.96442628418149
rradius 111.92571583333306
rwrist -20.155936246567947
rhand -18.096852931806982 1.0
rfingers 7.12502
rthumb 7.5441914298112875 11.205829369289281
